<svg id="SvgjsSvg1000" xmlns="http://www.w3.org/2000/svg" version="1.1" xmlns:xlink="http://www.w3.org/1999/xlink" xmlns:svgjs="http://svgjs.com/svgjs" width="23" height="23"><defs id="SvgjsDefs1001"></defs><path id="SvgjsPath1007" d="M301 40C301 34.47715 305.47715 30 311 30C316.52285 30 321 34.47715 321 40C321 45.52285 316.52285 50 311 50C305.47715 50 301 45.52285 301 40Z " fill="#ffffff" fill-opacity="1" transform="matrix(1,0,0,1,-299.5,-28.5)"></path><path id="SvgjsPath1008" d="M301 40C301 34.47715 305.47715 30 311 30C316.52285 30 321 34.47715 321 40C321 45.52285 316.52285 50 311 50C305.47715 50 301 45.52285 301 40Z " fill-opacity="0" fill="#ffffff" stroke-dasharray="0" stroke-linejoin="miter" stroke-linecap="butt" stroke-opacity="1" stroke="#f5f5f5" stroke-miterlimit="50" stroke-width="3" transform="matrix(1,0,0,1,-299.5,-28.5)"></path><path id="SvgjsPath1009" d="M301 37L301 30L321 30L321 37Z " fill="#ffffff" fill-opacity="1" transform="matrix(1,0,0,1,-299.5,-28.5)"></path><path id="SvgjsPath1010" d="M301 44L301 37L321 37L321 44Z " fill="#4a90e2" fill-opacity="1" transform="matrix(1,0,0,1,-299.5,-28.5)"></path><path id="SvgjsPath1011" d="M301 50L301 43L321 43L321 50Z " fill="#d0021b" fill-opacity="1" transform="matrix(1,0,0,1,-299.5,-28.5)"></path><path id="SvgjsPath1012" d="M301 40C301 34.47715 305.47715 30 311 30C316.52285 30 321 34.47715 321 40C321 45.52285 316.52285 50 311 50C305.47715 50 301 45.52285 301 40Z " fill="#ffffff" fill-opacity="1" transform="matrix(1,0,0,1,-299.5,-28.5)"></path><path id="SvgjsPath1013" d="M301 40C301 34.47715 305.47715 30 311 30C316.52285 30 321 34.47715 321 40C321 45.52285 316.52285 50 311 50C305.47715 50 301 45.52285 301 40Z " fill-opacity="0" fill="#ffffff" stroke-dasharray="0" stroke-linejoin="miter" stroke-linecap="butt" stroke-opacity="1" stroke="#f5f5f5" stroke-miterlimit="50" stroke-width="3" transform="matrix(1,0,0,1,-299.5,-28.5)"></path><path id="SvgjsPath1014" d="M301 37L301 30L321 30L321 37Z " fill="#ffffff" fill-opacity="1" transform="matrix(1,0,0,1,-299.5,-28.5)"></path><path id="SvgjsPath1015" d="M301 44L301 37L321 37L321 44Z " fill="#4a90e2" fill-opacity="1" transform="matrix(1,0,0,1,-299.5,-28.5)"></path><path id="SvgjsPath1016" d="M301 50L301 43L321 43L321 50Z " fill="#d0021b" fill-opacity="1" transform="matrix(1,0,0,1,-299.5,-28.5)"></path></svg>